<svg width="24" height="24" xmlns="http://www.w3.org/2000/svg" xml:space="preserve" enable-background="new 0 0 101 101"
     version="1.1">

 <g>
  <title>Layer 1</title>
     <path stroke="null" stroke-width="0" id="svg_1"
           d="m21.70402,13.2363l0.00072,-2.4181l2.19345,-1.10221c-0.31609,-1.62368 -0.95331,-3.13387 -1.85172,-4.45587l-2.33975,0.76389l-1.71986,-1.70987l0.76836,-2.32616c-1.32972,-0.89319 -2.84874,-1.52635 -4.48154,-1.8406l-1.10901,2.18071l-2.43115,0l-1.10901,-2.18071c-1.63317,0.31461 -3.15146,0.94742 -4.4819,1.84024l0.76836,2.32616l-1.72059,1.71059l-2.33903,-0.76461c-0.8984,1.322 -1.53563,2.83219 -1.85136,4.45551l2.19345,1.10221l0,2.41846l-2.19345,1.10185c0.31609,1.62368 0.95259,3.13387 1.85027,4.45587l2.34047,-0.76461l1.72059,1.71059l-0.7698,2.32616c1.33045,0.89319 2.84946,1.52671 4.48227,1.84096l1.10865,-2.18143l2.43295,0.00072l1.10792,2.18143c1.63317,-0.31425 3.15218,-0.94777 4.4819,-1.84024l-0.76908,-2.32724l1.72059,-1.70987l2.33975,0.76461c0.8984,-1.322 1.53563,-2.83219 1.85172,-4.45623l-2.15805,-1.10221l-0.03612,0zm-9.7188,4.852c-3.36098,0 -6.09629,-2.7187 -6.09629,-6.06088c0,-3.34145 2.73531,-6.06052 6.09629,-6.06052c3.36134,0 6.09629,2.7187 6.09629,6.06052c0,3.34217 -2.73495,6.06088 -6.09629,6.06088z"/>
 </g>
</svg>